#!OML:ASF I:\Actors\actors\Patient Classification 2\Patient 1\Session 1\actor1.ASF
:FULLY-SPECIFIED
:DEGREES
631
root -0.731008 18.7253 5.6513 4.00615 -1.82172 -1.54875
lowerback 3.77205 2.21315 -1.06321
upperback 1.53576 2.88976 -2.4271
thorax -0.463281 1.44727 -2.01102
lowerneck -15.1772 -5.16552 -3.57448
upperneck 19.7614 -8.70858 10.5475
head 9.38574 -3.23099 3.1046
rclavicle -3.04141e-014 2.3059e-014
rhumerus -108.768 14.2767 -113.042
rradius 102.141
rwrist -48.9691
rhand 12.8787 -60.6939
rfingers 7.12502
rthumb 37.8513 273.467
lclavicle -3.04141e-014 2.3059e-014
lhumerus -67.7138 -27.5682 102.436
lradius 111.63
lwrist 37.1304
lhand -13.4053 -22.1129
lfingers 7.12502
lthumb 12.7025 7.48072
rfemur 0 0 0
rtibia 0
rfoot 0 0
rtoes 0
lfemur -6.22127 -8.54008 -12.612
ltibia 20.7971
lfoot -24.5334 17.2684
ltoes -54.0492
632
root -0.73135 18.7246 5.65557 4.09548 -1.75662 -1.51987
lowerback 3.74521 2.08257 -1.08083
upperback 1.51114 2.71613 -2.31561
thorax -0.484579 1.35994 -1.87929
lowerneck -15.1465 -4.98411 -3.32179
upperneck 19.575 -8.46155 10.4004
head 9.27708 -3.12004 3.04345
rclavicle -9.93923e-016 4.77083e-015
rhumerus -108.408 12.9335 -112.617
rradius 102.636
rwrist -49.0615
rhand 12.6302 -60.9178
rfingers 7.12502
rthumb 37.6165 273.18
lclavicle -9.93923e-016 4.77083e-015
lhumerus -68.3272 -26.9434 102.56
lradius 111.695
lwrist 37.065
lhand -13.5137 -22.0388
lfingers 7.12502
lthumb 12.598 7.56129
rfemur 0 0 0
rtibia 0
rfoot 0 0
rtoes 0
lfemur -6.30717 -8.61696 -12.6315
ltibia 20.7654
lfoot -24.5374 17.2989
ltoes -54.0324
633
root -0.732001 18.7263 5.65957 4.16583 -1.73705 -1.5189
lowerback 3.73468 2.00006 -1.08136
upperback 1.52284 2.60783 -2.17257
thorax -0.476152 1.30534 -1.72716
lowerneck -15.2618 -4.83555 -3.17796
upperneck 19.4599 -8.2484 10.2835
head 9.2302 -3.02224 3.00459
rclavicle 5.4467e-014 -1.59028e-015
rhumerus -108.897 12.303 -112.952
rradius 103.045
rwrist -49.893
rhand 11.7031 -59.8673
rfingers 7.12502
rthumb 36.7398 274.001
lclavicle 5.4467e-014 -1.59028e-015
lhumerus -68.7825 -26.3975 102.723
lradius 111.748
lwrist 36.9715
lhand -13.7472 -21.9443
lfingers 7.12502
lthumb 12.3729 7.66959
rfemur 0 0 0
rtibia 0
rfoot 0 0
rtoes 0
lfemur -6.34313 -8.80601 -12.6286
ltibia 20.7401
lfoot -24.6791 17.3529
ltoes -53.8213
634
root -0.732501 18.7266 5.66486 4.15277 -1.75714 -1.52478
lowerback 3.77754 1.95598 -1.06804
upperback 1.57461 2.55078 -2.02443
thorax -0.454498 1.27642 -1.58083
lowerneck -15.399 -4.73859 -3.13429
upperneck 19.33 -8.09587 10.2278
head 9.19454 -2.95351 2.99487
rclavicle 1.3418e-014 -3.18055e-015
rhumerus -108.637 11.2938 -112.719
rradius 103.478
rwrist -50.285
rhand 10.9134 -59.9633
rfingers 7.12502
rthumb 35.9922 273.718
lclavicle 1.3418e-014 -3.18055e-015
lhumerus -69.1346 -25.9182 102.855
lradius 111.794
lwrist 37.0167
lhand -13.8407 -21.8584
lfingers 7.12502
lthumb 12.2827 7.76087
rfemur 0 0 0
rtibia 0
rfoot 0 0
rtoes 0
lfemur -6.28112 -8.88031 -12.6292
ltibia 20.7332
lfoot -24.8047 17.3323
ltoes -53.6597
635
root -0.732516 18.7244 5.66969 4.12134 -1.74945 -1.50291
lowerback 3.80667 1.89288 -1.104
upperback 1.65473 2.46773 -1.8518
thorax -0.399434 1.23419 -1.37968
lowerneck -15.5278 -4.65209 -3.13057
upperneck 19.1231 -7.93993 10.1708
head 9.13209 -2.88918 2.9911
rclavicle 3.77691e-015 -1.98785e-014
rhumerus -107.72 10.0393 -112.163
rradius 104.036
rwrist -50.7574
rhand 9.59053 -60.8101
rfingers 7.12502
rthumb 34.7379 272.573
lclavicle 3.77691e-015 -1.98785e-014
lhumerus -69.4671 -25.3853 102.969
lradius 111.849
lwrist 37.0888
lhand -13.8339 -21.8516
lfingers 7.12502
lthumb 12.2892 7.76732
rfemur 0 0 0
rtibia 0
rfoot 0 0
rtoes 0
lfemur -6.23458 -8.85878 -12.6579
ltibia 20.7486
lfoot -24.8335 17.2767
ltoes -53.6704
636
root -0.731797 18.7235 5.67255 4.15049 -1.72956 -1.53714
lowerback 3.79344 1.86141 -1.04502
upperback 1.69935 2.43034 -1.67335
thorax -0.352288 1.21512 -1.22675
lowerneck -15.5735 -4.5689 -3.03075
upperneck 18.827 -7.78344 10.025
head 9.01601 -2.83234 2.94108
rclavicle 5.76476e-015 1.27222e-014
rhumerus -107.87 9.33902 -112.445
rradius 104.319
rwrist -51.8329
rhand 8.35094 -60.0675
rfingers 7.12502
rthumb 33.5606 273.052
lclavicle 5.76476e-015 1.27222e-014
lhumerus -69.8696 -24.9965 103.154
lradius 111.92
lwrist 37.1108
lhand -14.0065 -21.7885
lfingers 7.12502
lthumb 12.1229 7.84027
rfemur 0 0 0
rtibia 0
rfoot 0 0
rtoes 0
lfemur -6.26179 -8.94405 -12.6232
ltibia 20.7683
lfoot -24.8933 17.3151
ltoes -53.6573
637
root -0.730221 18.725 5.67454 4.20986 -1.71157 -1.57708
lowerback 3.73727 1.84992 -0.925207
upperback 1.71739 2.42164 -1.53172
thorax -0.303837 1.21085 -1.14578
lowerneck -15.4697 -4.48788 -2.76294
upperneck 18.4071 -7.63339 9.75992
head 8.81984 -2.78754 2.82269
rclavicle 6.4605e-015 0
rhumerus -107.632 8.52389 -112.333
rradius 104.603
rwrist -51.6119
rhand 6.00743 -59.5902
rfingers 7.12502
rthumb 31.3304 273.072
lclavicle 6.4605e-015 0
lhumerus -70.314 -24.7013 103.329
lradius 112.014
lwrist 37.1276
lhand -14.2432 -21.7457
lfingers 7.12502
lthumb 11.8946 7.89644
rfemur 0 0 0
rtibia 0
rfoot 0 0
rtoes 0
lfemur -6.29757 -9.02368 -12.5801
ltibia 20.7381
lfoot -24.9206 17.3755
ltoes -53.624
638
root -0.728024 18.7265 5.6762 4.25943 -1.65448 -1.51186
lowerback 3.68037 1.78521 -0.942602
upperback 1.79859 2.33833 -1.3756
thorax -0.1972 1.16843 -0.969238
lowerneck -15.5874 -4.38441 -2.51721
upperneck 18.0166 -7.43897 9.43772
head 8.67126 -2.72139 2.69214
rclavicle -3.74709e-014 3.18055e-015
rhumerus -107.414 7.77979 -112.562
rradius 104.605
rwrist -52.2376
rhand 3.80229 -59.4416
rfingers 7.12502
rthumb 29.2269 272.834
lclavicle -3.74709e-014 3.18055e-015
lhumerus -70.5864 -24.2404 103.412
lradius 112.092
lwrist 37.0413
lhand -14.3031 -21.7074
lfingers 7.12502
lthumb 11.8369 7.93803
rfemur 0 0 0
rtibia 0
rfoot 0 0
rtoes 0
lfemur -6.34445 -8.98517 -12.6399
ltibia 20.6885
lfoot -24.8283 17.347
ltoes -53.6953
639
root -0.746124 18.7229 5.68903 4.11755 -1.3339 -1.37179
lowerback 3.67846 1.6643 -1.31928
upperback 1.99791 2.16974 -1.12662
thorax -0.0169756 1.07989 -0.493707
lowerneck -15.7499 -4.26333 -2.49545
upperneck 17.5283 -7.20035 9.31019
head 8.51303 -2.63166 2.66969
rclavicle 1.41137e-014 2.38542e-015
rhumerus -107.193 7.14924 -112.539
rradius 104.475
rwrist -52.2964
rhand 3.45715 -59.9439
rfingers 7.12502
rthumb 28.8973 272.275
lclavicle 1.41137e-014 2.38542e-015
lhumerus -70.7246 -23.7815 103.499
lradius 112.105
lwrist 36.8539
lhand -14.2187 -21.5395
lfingers 7.12502
lthumb 11.9182 8.10127
rfemur 0 0 0
rtibia 0
rfoot 0 0
rtoes 0
lfemur -6.19846 -8.66232 -12.674
ltibia 20.6306
lfoot -24.473 16.8708
ltoes -54.0051
640
root -0.742414 18.7239 5.68741 4.25826 -1.34282 -1.23726
lowerback 3.62542 1.67864 -1.36163
upperback 2.02614 2.18963 -0.986327
thorax 0.0344673 1.08853 -0.324982
lowerneck -15.7236 -4.14662 -2.55681
upperneck 16.9202 -6.96601 9.31642
head 8.29047 -2.54482 2.70737
rclavicle -1.85864e-014 7.95139e-016
rhumerus -107.055 6.41922 -112.287
rradius 104.399
rwrist -52.1922
rhand 3.47524 -60.5116
rfingers 7.12502
rthumb 28.9146 271.71
lclavicle -1.85864e-014 7.95139e-016
lhumerus -70.8968 -23.4501 103.632
lradius 112.075
lwrist 36.7908
lhand -14.1141 -21.3956
lfingers 7.12502
lthumb 12.0191 8.2393
rfemur 0 0 0
rtibia 0
rfoot 0 0
rtoes 0
lfemur -6.33801 -8.67355 -12.8225
ltibia 20.5611
lfoot -24.4622 16.966
ltoes -54.086
641
root -0.732894 18.7282 5.68218 4.55093 -1.48519 -1.16247
lowerback 3.35141 1.71366 -1.38804
upperback 2.06112 2.24247 -0.786983
thorax 0.214018 1.11278 -0.0984939
lowerneck -15.9504 -4.06688 -2.48779
upperneck 16.5389 -6.77745 9.03312
head 8.17692 -2.48451 2.61867
rclavicle 1.90833e-014 -8.34896e-015
rhumerus -106.992 5.80395 -112.016
rradius 104.361
rwrist -52.5932
rhand 3.17346 -61.3818
rfingers 7.12502
rthumb 28.6263 270.791
lclavicle 1.90833e-014 -8.34896e-015
lhumerus -70.9169 -23.0143 103.745
lradius 111.973
lwrist 36.7854
lhand -14.0146 -21.343
lfingers 7.12502
lthumb 12.115 8.28626
rfemur 0 0 0
rtibia 0
rfoot 0 0
rtoes 0
lfemur -6.65117 -8.78608 -12.9319
ltibia 20.5461
lfoot -24.6154 17.2004
ltoes -53.9517
642
root -0.738166 18.7253 5.69297 4.36266 -0.982172 -1.15826
lowerback 3.06325 1.50345 -1.66308
upperback 2.43885 1.96713 -0.385043
thorax 0.74168 0.964953 0.489915
lowerneck -16.3334 -3.97759 -2.28357
upperneck 16.2004 -6.55515 8.45443
head 8.088 -2.423 2.41202
rclavicle 4.62174e-015 -7.15625e-015
rhumerus -106.872 5.46992 -111.802
rradius 104.175
rwrist -53.5478
rhand 2.23014 -61.8182
rfingers 7.12502
rthumb 27.7247 270.206
lclavicle 4.62174e-015 -7.15625e-015
lhumerus -70.6759 -22.4216 103.799
lradius 111.834
lwrist 36.6903
lhand -13.957 -21.3191
lfingers 7.12502
lthumb 12.1706 8.30686
rfemur 0 0 0
rtibia 0
rfoot 0 0
rtoes 0
lfemur -6.56055 -8.70809 -12.8603
ltibia 20.6069
lfoot -24.3154 16.7302
ltoes -54.0854
643
root -0.714813 18.7275 5.68542 4.50112 -0.966484 -1.23744
lowerback 3.13679 1.51084 -1.13763
upperback 2.35631 1.98623 -0.304064
thorax 0.629894 0.981435 0.275171
lowerneck -16.5594 -3.97938 -2.09002
upperneck 16.0826 -6.52278 8.09583
head 8.06643 -2.4283 2.26106
rclavicle -4.52235e-015 2.78299e-015
rhumerus -106.889 4.59076 -111.664
rradius 103.776
rwrist -54.4312
rhand 1.81285 -62.0979
rfingers 7.12502
rthumb 27.3256 450.137
lclavicle -4.52235e-015 2.78299e-015
lhumerus -71.0406 -22.1321 103.905
lradius 111.783
lwrist 36.5729
lhand -13.9785 -21.3477
lfingers 7.12502
lthumb 12.1498 8.2795
rfemur 0 0 0
rtibia 0
rfoot 0 0
rtoes 0
lfemur -6.8334 -8.86336 -12.8516
ltibia 20.7265
lfoot -24.347 16.9417
ltoes -54.1196
